<?xml version="1.0" encoding="utf-8"?>
<!-- Generator: Adobe Illustrator 24.2.3, SVG Export Plug-In . SVG Version: 6.00 Build 0)  -->
<svg version="1.1" id="Layer_1" xmlns="http://www.w3.org/2000/svg" xmlns:xlink="http://www.w3.org/1999/xlink" x="0px" y="0px"
	 viewBox="0 0 288 120.98" style="enable-background:new 0 0 288 120.98;" xml:space="preserve">
<style type="text/css">
	.st0{fill:#F5D452;}
	.st1{fill:#FFFFFF;}
</style>
<polygon class="st0" points="100.72,20.95 105.91,23.76 100.72,26.58 97.89,31.72 95.05,26.58 89.87,23.76 95.05,20.95 97.89,15.8 
	"/>
<path class="st1" d="M96.15,89.81c-0.11,0.43-0.16,0.82-0.16,1.14c0,1.25,0.82,2.01,2.14,2.01c0.77,0,1.75-0.27,2.9-0.76v0.11
	c-2.85,2.99-6.08,3.75-8.71,3.75c-4.55,0-6.8-2.61-6.8-5.93c0-0.65,0.11-1.3,0.27-2.01l2.96-11.8c0.16-0.6,0.22-1.2,0.22-1.68
	c0-0.92-0.33-1.58-1.42-1.58c-2.03,0-4.82,3.04-6.19,8.37l-3.51,14.08H67l4.88-19.2c0.17-0.6,0.22-1.2,0.22-1.68
	c0-0.92-0.33-1.58-1.42-1.58c-2.03,0-4.88,3.04-6.19,8.37l-3.51,14.08H50.13l5.32-21.04c0.33-1.47,0.55-2.34,0.55-3.04
	c0-1.2-0.6-1.85-1.92-2.83v-0.11h13.64l-2.03,8.38c2.68-5.38,6.36-8.92,11.4-8.92c4.16,0,5.81,2.72,5.81,6.03
	c0,0.87-0.11,1.85-0.33,2.88c2.69-5.38,6.35-8.92,11.4-8.92c4.33,0,5.81,2.55,5.81,5.82c0,1.09-0.17,2.29-0.44,3.42L96.15,89.81z"/>
<path class="st1" d="M121.23,68.88c-2.47,0-4.55,4.46-6.3,10.88c-1.26,4.73-1.92,8.48-1.97,11.04c0,2.61,0.6,4.35,2.36,4.35
	c2.46,0,4.6-4.46,6.3-10.87c1.26-4.73,1.97-8.54,2.03-11.09C123.64,70.62,122.99,68.88,121.23,68.88 M120.96,67.95
	c7.23,0,12.71,4.08,12.71,11.15c0,10.11-8.65,16.97-18.08,16.97c-7.18,0-12.71-4.08-12.71-11.15
	C102.88,74.8,111.54,67.95,120.96,67.95"/>
<path class="st1" d="M157.7,76.05c0-1.52-1.04-2.5-2.69-2.5c-2.74,0-5.53,3.53-7.12,9.9l-3.01,12.07h-10.85l5.32-21.04
	c0.33-1.47,0.55-2.34,0.55-3.04c0-1.2-0.6-1.85-1.92-2.83v-0.11h13.64l-2.36,9.52c2.3-5.33,5.42-10.06,10.19-10.06
	c3.23,0,5.48,2.17,5.48,5.22c0,4.29-3.23,7.01-6.8,7.01c-1.37,0-2.57-0.43-3.07-0.92C156.66,79.1,157.7,77.96,157.7,76.05"/>
<path class="st1" d="M183.61,84.7l1.97-7.12c0.44-1.74,0.66-3.15,0.66-4.3c0-2.39-1.04-3.59-2.74-3.59
	c-4.39,0-8.33,11.69-8.33,17.83c0,2.83,0.82,4.35,2.69,4.35C180.54,91.88,182.62,88.18,183.61,84.7 M193.2,89.81
	c-0.71,2.88,1.26,3.97,4.88,2.39v0.11c-2.85,2.99-6.08,3.75-8.71,3.75c-4.77,0-6.9-2.88-6.74-6.47c0-0.16,0.11-0.65,0.16-0.87
	c-2.19,3.97-5.04,7.23-10.3,7.23c-5.15,0-8.33-3.75-8.33-9.46c0-9.46,7.4-18.54,17.04-18.54c4.44,0,6.68,2.06,8,4.84
	c2.57-2.94,5.81-4.24,9.75-4.84c-1.21,3.32-2.19,7.34-3.23,11.58L193.2,89.81z"/>
<path class="st1" d="M206.05,60.77c0.33-1.2,0.44-2.07,0.44-2.77c0-1.52-0.77-2.18-2.3-3.1v-0.11h14.19l-8.6,35.02
	c-0.11,0.38-0.16,0.76-0.16,1.09c0,1.31,0.77,2.07,2.14,2.07c0.77,0,1.7-0.27,2.85-0.76v0.11c-2.85,2.99-6.02,3.75-8.71,3.75
	c-4.6,0-6.79-2.66-6.79-5.98c0-0.6,0.11-1.25,0.27-1.96L206.05,60.77z"/>
<path class="st1" d="M226.83,81.71c6.03-0.76,9.42-5.93,9.42-10.82c0-1.25-0.44-2.07-1.48-2.07
	C231.82,68.82,227.93,75.51,226.83,81.71 M215.76,85.14c0-9.08,8.16-17.24,18.85-17.24c5.48,0,9.09,2.45,9.09,6.09
	c0,5.98-7.29,8.21-16.98,8.32c-0.17,0.87-0.22,1.79-0.22,2.61c0,4.68,2.85,6.74,6.36,6.74c3.01,0,5.26-1.09,7.62-3.7h0.38
	c-2.79,5.22-6.96,8.1-13.26,8.1C220.64,96.06,215.76,91.93,215.76,85.14"/>
<path class="st1" d="M258.72,67.95c5.7,0,9.48,2.01,9.48,5.27c0,2.18-1.92,3.54-4.22,3.54c-1.37,0-2.58-0.49-3.29-1.36
	c1.37-0.27,1.97-1.63,1.97-2.99c0-2.07-1.37-3.59-4.44-3.59c-2.9,0-4.99,1.47-4.99,3.7c0,1.85,1.37,2.72,4.99,4.57
	c5.97,2.99,8.33,4.84,8.33,8.92c0,5.71-6.25,10.06-13.86,10.06c-6.96-0.05-11.12-2.77-11.12-6.25c0-2.39,2.08-3.7,4.66-3.7
	c1.26,0,2.58,0.38,3.45,1.25c-1.26,0.05-2.25,1.25-2.25,3.1c0,2.66,2.25,4.73,5.75,4.73c3.45,0,5.59-1.41,5.59-3.81
	c0-1.9-1.48-3.15-5.31-4.95c-4.88-2.34-7.62-4.68-7.62-8.7C245.84,72.3,251.7,67.95,258.72,67.95"/>
<path class="st1" d="M48.15,57.37c-0.06,0.33-0.11,0.65-0.11,0.93c0,1.64,1.21,2.56,2.85,2.56c1.37,0,3.13-0.65,4.78-2.07l0.17,0.11
	c-2.8,3.6-5.82,5.51-10.82,5.51c-5.05,0-7.64-2.67-7.64-6.32c0-0.6,0.06-1.31,0.22-2.02l4.5-17.94h-2.75l0.22-0.82
	c6.26-1.31,11.7-4.53,15.44-10.09h0.55l-2.41,9.54h6.7l-0.61,1.36h-6.43L48.15,57.37z"/>
<path class="st1" d="M81.83,44.34c0-1.52-1.04-2.51-2.69-2.51c-2.75,0-5.55,3.54-7.14,9.92l-3.02,12.1H58.1l5.33-21.1
	c0.33-1.47,0.55-2.34,0.55-3.05c0-1.2-0.6-1.85-1.92-2.83v-0.11h13.68l-2.36,9.54c2.31-5.35,5.44-10.09,10.22-10.09
	c3.24,0,5.49,2.18,5.49,5.23c0,4.31-3.24,7.03-6.81,7.03c-1.38,0-2.58-0.44-3.08-0.93C80.79,47.4,81.83,46.25,81.83,44.34"/>
<path class="st1" d="M98.08,58.13c-0.11,0.44-0.17,0.82-0.17,1.15c0,1.26,0.77,2.02,2.14,2.02c0.77,0,1.76-0.27,2.86-0.76l0.05,0.11
	c-2.86,3-6.1,3.76-8.73,3.76c-4.62,0-6.81-2.62-6.81-5.94c0-0.65,0.11-1.31,0.27-2.02l3.46-13.68c0.33-1.47,0.55-2.35,0.55-3.05
	c0-1.2-0.55-1.85-1.92-2.83v-0.11h13.68L98.08,58.13z"/>
<path class="st1" d="M121.15,36.22c5.71,0,9.5,2.02,9.5,5.29c0,2.18-1.92,3.54-4.23,3.54c-1.37,0-2.58-0.49-3.3-1.36
	c1.37-0.27,1.98-1.64,1.98-3c0-2.07-1.37-3.6-4.45-3.6c-2.91,0-5,1.47-5,3.71c0,1.85,1.37,2.73,5,4.58c5.99,3,8.35,4.85,8.35,8.94
	c0,5.72-6.26,10.08-13.9,10.08c-6.97-0.05-11.15-2.78-11.15-6.27c0-2.4,2.09-3.71,4.67-3.71c1.27,0,2.58,0.38,3.46,1.25
	c-1.26,0.05-2.25,1.25-2.25,3.11c0,2.67,2.25,4.74,5.77,4.74c3.46,0,5.6-1.42,5.6-3.81c0-1.91-1.48-3.16-5.33-4.96
	c-4.89-2.35-7.64-4.69-7.64-8.72C108.24,40.58,114.12,36.22,121.15,36.22"/>
<path class="st1" d="M140.37,63.86h-10.82l8.73-34.83c0.27-1.2,0.44-2.07,0.44-2.78c0-1.53-0.82-2.18-2.31-3.11v-0.11h14.17
	l-5.55,22.29c2.64-5.4,6.65-9.1,11.86-9.1c4.4,0,6.04,2.56,6.04,5.94c0,1.04-0.22,2.18-0.49,3.33l-3.18,12.65
	c-0.11,0.44-0.17,0.82-0.17,1.14c0,1.26,0.83,2.02,2.14,2.02c0.77,0,1.76-0.28,2.91-0.76v0.11c-2.86,3-6.1,3.76-8.73,3.76
	c-4.56,0-6.81-2.62-6.81-5.94c0-0.65,0.11-1.31,0.27-2.02L151.74,45c0.22-0.71,0.33-1.42,0.33-1.96c0-1.04-0.44-1.69-1.7-1.69
	c-2.25,0-5.11,3.05-6.48,8.39L140.37,63.86z"/>
<path class="st1" d="M185.66,53.01l1.98-7.14c0.44-1.74,0.66-3.16,0.66-4.31c0-2.4-1.04-3.6-2.75-3.6c-4.39,0-8.35,11.72-8.35,17.88
	c0,2.84,0.82,4.36,2.69,4.36C182.59,60.21,184.68,56.5,185.66,53.01 M195.28,58.13c-0.72,2.89,1.26,3.98,4.89,2.4v0.11
	c-2.85,3-6.1,3.76-8.73,3.76c-4.78,0-6.92-2.89-6.76-6.49c0-0.16,0.11-0.65,0.17-0.87c-2.2,3.98-5.05,7.25-10.33,7.25
	c-5.16,0-8.35-3.76-8.35-9.49c0-9.49,7.42-18.59,17.08-18.59c4.45,0,6.7,2.07,8.02,4.85c2.58-2.95,5.82-4.25,9.78-4.85
	c-1.21,3.32-2.2,7.36-3.24,11.61L195.28,58.13z"/>
</svg>
